<?xml version="1.0" encoding="UTF-8"?>
<svg id="Layer_1" xmlns="http://www.w3.org/2000/svg" version="1.1" viewBox="0 0 72 72">
  <!-- Generator: Adobe Illustrator 29.8.2, SVG Export Plug-In . SVG Version: 2.1.1 Build 3)  -->
  <defs>
    <style>
      .st0 {
        fill: #010101;
      }
    </style>
  </defs>
  <path class="st0" d="M-112.4,31.6c.4.2,1.5.1,1.7.8s0,1.5,0,2.1c.3,3.3,1,7,3.3,9.7s1.7,1.9,2.2,1.8,1.4-.6,1.9-.7c1.4-.3,2.6-.3,4-.2s1.5.4,2.9.3c11.6-1.4,18.2,8.8,20.3,17,2,8.2,2.1,24.7-6.4,30.4-1.9,1.3-4.6,2.4-7.1,2.3-.4,0-.9-.3-1.2-.2s-2.2,1.6-2.9,2c-2.5,1.2-4.8,1.2-7.1-.4-3.6,2.7-8.2,3.4-12.4,1-2.2,2-6,2-8.9,1.4-.6-.1-2.9-1-3.1-1-.3,0-.8.3-1.2.4-4.3.5-10.6-4.8-13-7.5-7.4-8.2-8.2-17.9-5.1-27.6,1.8-5.6,7.8-17.3,16.3-16.1.4,0,.9.4,1.3.3s1.3-.5,1.8-.6c1.2-.3,2.2-.2,3.2-1,1.6-1.3,1.8-4.9,2.5-6.9.7-2.3,2-5,3.7-6.8.5-.6,1.4-1.6,2.4-1.2s.6.8.8.9h0ZM-114.3,32.4c-.7.2-2.9,3.9-3.3,4.6-.9,2-2.9,7.7-.4,9.1s2.4-.3,2.6-1.6c.4-3.1-.6-5.4.5-8.8.2-.6,1.3-2.5,1.3-2.8s0-.3-.2-.5c-.1-.1-.3-.1-.4-.1ZM-111.7,33c-.3,0-.2,0-.3.2-1.9,2.4-2.8,7.6-1.9,10.4s.7,1.8,1.4,1.1-.5-3-.2-3.9c.8.6.9,1.6,1.3,2.4.5.8.9,1.7,1.6,1.1.1-2-1.4-3.9-1.6-5.9s-.1-5.2-.3-5.4h0ZM-101.3,49.4c-.1.1-2.5-1.2-2.9-1.4-1.7-.8-5.9-2.2-7.7-1.3s-1.5,2.2-1.5,3.2c0,.3.4,1,0,1.2-1.6-3.6-7.5-4.6-11.5-3.3-2.5.9-4.3,3.1-5.3,5.2-.3.5-1.1,3.3-1.3,3.4s-.3,0-.5,0c-.8-3.1,1.1-6.3,3.9-8.3-4.1-1-7.2,2.1-9.3,4.7-6.9,8.4-9.7,21.2-5.2,30.8,2.2,4.6,8.6,12.2,14.6,13.4.2,0,1.5.3,1.5,0-2-1.3-3.4-3.1-4.4-5-.4-.8-1.8-3.8-1.4-4.4s.3-.3.5-.4c.9-.2,1,1.6,1.2,2.2,1.5,4,4,7.4,9.1,8.4,1.9.4,5.4.6,7-.6s.5-1.1,1.2-1.3c.3,0,1.5.8,1.9,1,3.3,1.5,6.5,1,9.3-.9.4-.3,1-1,1.3-1,.6,0,1.4.9,2,1.2,4.1,1.8,8.3-3,9.7-5.7.8-1.5,1.5-3.6,1.6-5.2s-.3-2.5.4-2.7c.8,0,.9.7.9,1.2,0,2.8-1.2,6.3-2.8,8.8s-1.1,1.3-.9,1.4c2.2.3,4.7-.8,6.4-1.9,7.9-5.1,7.9-21.2,6.2-28.7-1.5-6.9-7.3-17.4-17.2-17-.2,0-.4,0-.4.1,3,1.3,5.3,3.9,6.5,6.6s.9,2.4.6,3.2-.6.1-.8-.2c-.4-.8-.6-1.8-1.1-2.6-2.3-4.5-6.4-7.1-12.3-7.1-.4,0-2.1.1-2,.5.8.8,2.4,1.4,2.4,2.6h0Z"/>
  <path class="st0" d="M-84.7,69.1c-.5-1.4-1.8-2.4-3.6-2.5-.6,0-2.2-.3-2.1.6.1.9,1.4.4,2.2.5.4,0,.8.3,1.1.4,0,0,0,.1,0,.2.2,0,.3.2.4.3,0,0,.2.2.2.3,0,0,0,0,0,0,.6.5.5,1.3.8,1.9h-.3c-.6,0-.8,0-1,.5-1.7,4-1.6,12.5-4.4,15.3-.4.4-1.6.4-1,1.4.6,1,2.4-1.1,2.7-1.6,1.9-2.9,1.8-6.2,2.4-9.3.4-1.9,1.1-3.8,1.6-5.7,1.7.6,1.4-.8.8-2.2Z"/>
  <path class="st0" d="M-114.7,92.3c-10.8.2-15.9-9.5-18.1-17.1-.3-.4-.5-.4-.9-.3l.7-1.3h.2c0,0,.2-.2.5-.3,0,0,0,0,0,0,.6-.7,2.8-.8,3-1.2.3-.3-.1-.7-.5-.8-.3,0,.4-.3-1.4.2-1.3.4-2.5,1.3-3.4,2.3-.2-.7-.3-1,0,0-.3.4-.6.8-.8,1.3-.2.5-.8,2.2,0,2.4,1,0,.8-1,1.1-1.7,0-.2,0-.2.2-.2,0,.2.1.4.2.6,1.9,6.6,7.4,16.3,16.6,17,.9,0,3.3.3,2.6-.9Z"/>
  <path class="st0" d="M-136.6,55.4c.2.2.1.4,0,.6-.3.9-1.3,2.5-1.7,3.5-2.9,6.9-4.5,15.2-1.8,22.3.2.6,1.5,2.7,1.5,3,0,.5-.6.7-1,.5s-1.5-2.7-1.6-3.1c-3-7.4-1.2-16.4,1.9-23.6.3-.7,1.1-2.5,1.5-3.1s.8-.4,1.1-.1h0Z"/>
  <path class="st0" d="M-131.8,68.5l2.5-1.4c1.8-.7,3.4-.7,5.2-.2s3,.7,2,1.5c-.1,0-.3.2-.5.1-.4,0-1.9-.7-2.7-.8-1.8-.3-3.4,0-4.8,1s-1,1.2-1.8,1.2c-.7,0-1.6-2.2-1.8-2.8-.8-2.5-.5-4.9.6-7.3.4-.7,1.2-2.6,2.4-2v.4c-2.3,3-2.9,6.8-1.1,10.1h0Z"/>
  <path class="st0" d="M-90.4,61.6c-3.8.7-6.5,2.5-8.4,5.3-.3.5-.5,1.6-1.3,1.7-1.5.1.2-2.2.5-2.7,1.8-2.6,4.7-4.6,8.2-5.2,0-2.1-1-4-2.5-5.6s-1.5-1.1-1.6-1.5c.6-1.2,2,.3,2.6.9,1.8,1.9,3.2,4.7,2.5,7.2h0Z"/>
  <path class="st0" d="M-78.1,74c.3.2.2,1.2.2,1.5-.2,4.7-1.9,11.3-5.7,14.8-.6.6-2.5,2.1-3.4,1.9s-.5-.5-.3-.7,1.9-1.1,2.3-1.4c4.6-3.7,5.2-10,5.8-15,0-.5.4-1.7,1.1-1h0Z"/>
</svg>