<?xml version="1.0" encoding="UTF-8"?>
<svg id="Layer_1" xmlns="http://www.w3.org/2000/svg" version="1.1" viewBox="0 0 800 601">
  <!-- Generator: Adobe Illustrator 29.8.2, SVG Export Plug-In . SVG Version: 2.1.1 Build 3)  -->
  <defs>
    <style>
      .st0 {
        fill: #fff;
      }
    </style>
  </defs>
  <path class="st0" d="M800,0v601H0V0h800ZM387.3,34.7c-1.2-.7-2.7-6.1-5.3-7.2-6.8-3.1-12.7,5-16.4,9.6-12,15-20.4,36.3-25.3,54.7-4.2,15.5-5.6,44.3-16.6,54.9s-13.3,5.6-21.4,8.1-9.7,4.8-11.9,5.1-6.2-2.1-9-2.6c-57.6-10-98,84.1-110,128.5-21,77.7-15.5,156,34.3,221.1,16.4,21.5,58.7,64.1,87.8,60s6.4-2.9,8.1-2.9,16.6,7.2,20.7,8.2c19.6,5,45.8,4.9,60.4-11.1,28.1,19,59.3,13.7,83.9-8.2,15.4,12.6,30.9,12.7,47.8,2.8s17.2-15.1,19.4-15.6,5.2,1.6,7.8,1.9c16.8,1.4,35.2-7.8,48-18,57.3-45.9,57-177.7,43.2-243.2-13.7-64.9-58.9-146.9-136.9-135.6-9.7,1.4-10.3-.6-19.5-2s-17.6-1.2-27.2,1.2-11.6,5.2-12.7,5.3c-3.7.4-12.9-11.3-15.2-14.5-15.4-21.7-20.3-51.8-22.2-77.8-.3-4.7.9-12.9-.2-16.8s-9.2-4.5-11.5-6Z"/>
  <path d="M387.3,34.7c2.4,1.5,10,.9,11.5,6s-.1,12.1.2,16.8c1.9,26.1,6.8,56.2,22.2,77.8s11.5,14.9,15.2,14.5,9.4-4.4,12.7-5.3c9.6-2.5,17.5-2.7,27.2-1.2s9.8,3.4,19.5,2c78.1-11.3,123.3,70.7,136.9,135.6,13.8,65.5,14.1,197.3-43.2,243.2-12.8,10.3-31.1,19.4-48,18-2.6-.2-5.9-2.3-7.8-1.9s-14.7,12.9-19.4,15.6c-16.9,9.9-32.4,9.7-47.8-2.8-24.5,21.9-55.7,27.2-83.9,8.2-14.7,16-40.8,16.2-60.4,11.1-4.1-1.1-19.6-8.2-20.7-8.2-1.7,0-5.3,2.5-8.1,2.9-29.2,4.1-71.4-38.5-87.8-60-49.8-65.2-55.3-143.4-34.3-221.1,12-44.4,52.4-138.5,110-128.5,2.8.5,6.3,2.9,9,2.6s8.7-4.1,11.9-5.1c8.1-2.4,14.7-1.6,21.4-8.1,11.1-10.5,12.5-39.3,16.6-54.9,4.9-18.4,13.3-39.7,25.3-54.7,3.7-4.6,9.6-12.7,16.4-9.6s4.1,6.5,5.3,7.2ZM374.7,41.1c-4.9,1.3-19.8,31-22.2,36.9-6.4,16-19.9,61.4-3,73s16.3-2.4,17.4-12.6c2.6-24.9-3.8-43.2,3.6-70.4,1.3-4.8,8.6-20.3,8.6-22.5s-.4-2.6-1.5-3.6c-.8-.8-1.7-1.1-2.9-.8ZM392,46c-2.3-.5-1.6.3-2.2,1.3-12.6,19.5-19.1,60.9-12.7,83.2s4.7,14.3,9.4,8.6-3.7-23.7-1.5-31c5.4,4.4,5.9,13.1,9,19.5s6.4,13.5,11.1,8.8c.7-16.2-9.4-31.2-10.9-47s-.8-41.7-2.1-43.4ZM462,177c-1,1.1-16.8-9.8-19.3-11.2-11.8-6.4-39.6-17.3-52-10.7s-10.2,17.2-10.4,25.4c0,2.3,2.5,7.9-.2,9.5-11.1-29.1-51-37.1-77.7-26.2-17,7-28.9,25-35.5,41.5-1.7,4.3-7.4,26.4-8.8,27.2s-2.3.6-3.5.5c-5.6-25.1,7.7-50.4,26.5-66.5-27.5-7.8-48.9,17.1-62.8,37.2-46.5,67-65.5,169.7-35,246.6,14.7,36.9,58.2,97.4,98.7,107.3,1.5.4,10.2,2.4,10,0-13.4-10.2-23-24.9-29.8-40.1-2.7-6-11.9-30.3-9.7-35.3s2.2-2.3,3.2-2.9c6.2-1.5,6.6,12.8,8,17.6,9.8,32.1,27.2,59.1,61.6,67.4,12.9,3.1,36.8,4.8,47.2-5.1s3.6-8.4,7.9-10c2.1,0,10.1,6.6,12.9,8.2,22.2,12.3,43.8,7.9,63.1-7.2,2.5-2,6.5-7.6,9.1-8,4-.6,9.2,6.8,13.8,9.2,27.4,14.3,56.1-24.3,65.5-45.8,5.2-11.8,10.1-29.1,11.1-41.9s-1.8-20.3,2.7-21.3c5.2-.6,6.3,5.5,6.3,9.4.2,22.7-8,50.3-18.9,70.1s-7.3,10.2-6.2,11.3c15.2,2.5,31.6-6,43.5-15,53.7-40.8,53.5-169.2,42.2-229.2-10.3-54.9-49.4-139.4-116.2-135.8-1.1,0-2.7-.7-2.5,1,20.6,10.5,36.1,31.2,43.7,52.8s5.9,19.1,4.3,25.6-3.9.9-5.1-1.8c-2.7-6.1-4.1-14.1-7.1-20.9-15.5-35.7-43.4-56.5-83.4-56.7-2.5,0-14.1.8-13.5,3.6,5.6,6.1,16.3,11.3,16,20.5Z"/>
  <path class="st0" d="M462,177c.3-9.2-10.4-14.4-16-20.5-.6-2.8,11-3.6,13.5-3.6,40,.2,67.9,21.1,83.4,56.7,2.9,6.8,4.4,14.9,7.1,20.9s4.4,4.6,5.1,1.8c1.6-6.5-2-19.1-4.3-25.6-7.7-21.6-23.2-42.3-43.7-52.8-.3-1.6,1.3-.9,2.5-1,66.8-3.6,105.9,80.9,116.2,135.8,11.3,60,11.5,188.4-42.2,229.2-11.9,9-28.3,17.5-43.5,15-1.1-1.1,5.1-9.4,6.2-11.3,10.8-19.8,19.1-47.4,18.9-70.1,0-3.9-1.1-10.1-6.3-9.4-4.5,1.1-2.4,16.9-2.7,21.3-1,12.8-5.9,30.1-11.1,41.9-9.5,21.6-38.2,60.1-65.5,45.8-4.6-2.4-9.8-9.8-13.8-9.2s-6.6,6-9.1,8c-19.3,15.1-40.9,19.5-63.1,7.2-2.8-1.6-10.8-8.2-12.9-8.2-4.3,1.6-4.4,6.7-7.9,10-10.3,9.8-34.3,8.2-47.2,5.1-34.4-8.3-51.9-35.3-61.6-67.4s-1.8-19.1-8-17.6c-1.1.6-2.8,1.8-3.2,2.9-2.2,5,7,29.3,9.7,35.3,6.8,15.3,16.4,29.9,29.8,40.1.1,2.4-8.6.4-10,0-40.5-9.9-84.1-70.3-98.7-107.3-30.5-76.9-11.5-179.6,35-246.6,13.9-20.1,35.3-45,62.8-37.2-18.8,16.2-32,41.4-26.5,66.5,1.2,0,2.4.1,3.5-.5s7.1-22.9,8.8-27.2c6.6-16.5,18.5-34.6,35.5-41.5,26.7-10.9,66.6-3,77.7,26.2,2.7-1.6.1-7.2.2-9.5.3-8.1,2.4-21.2,10.4-25.4,12.5-6.5,40.2,4.3,52,10.7,2.5,1.4,18.3,12.3,19.3,11.2ZM523,263c-5.1-21-20.2-55.7-44.6-58.9-22.1-2.9-25.8,11.7-29.1,29.7-5.7,30.5-1.5,62.4,9.7,91.2l10.6-20.9c11.8-19.8,29.7-37.5,53.4-41.1ZM535.8,274.8c4.7-19.4-4.3-42.3-16.8-57.2s-13.8-16.5-17.6-7c.3,3,8.3,9.2,10.6,12,10.6,13,16.5,27.9,17.1,44.9-23.7,5.5-43.1,21.1-55.2,41.9-2.1,3.6-13.3,22.3-3.5,21.5s6.4-9.8,8.5-13.5c12.7-22.9,31.1-37,56.9-42.6ZM223.8,225.3c-2.1-2-5.5-1.7-7.2.8-3.1,4.5-8.1,18.8-10.3,24.7-21.1,57.3-33.1,129.5-13,188.5,1.1,3.3,9.5,23.7,11,24.5,2.6,1.5,7-.6,6.8-4.2s-8.5-19.3-10-24.1c-18.5-56.8-7.6-122.9,12-178.1,2.9-8.1,9.7-20.4,11.4-27.7s.7-3.3-.6-4.5ZM341,337c-.7-28.1-2.1-61-13.5-87-8.6-19.6-20.7-32.1-41.8-17.8s-32.1,56.8-28.7,85.8c3.9-1.7,7-4.5,11-6.5,30-15,55.8.6,73,25.5ZM256,330c-12.1-26.6-8.1-56.6,8-80.6l-.4-3.5c-7.9-5-13.6,10.3-16,16.1-7.7,18.8-9.3,38.3-4,58s7.3,21.5,12,22c5.2-.6,7.7-6.4,12.1-9.8,9.8-7.6,20.3-10.1,32.6-7.9s15.4,6.5,18.3,6.6,2.4-.5,3.2-1.1c6.3-6.4-9.7-11.1-13.8-12.2-12.4-3.6-23.3-3.7-35.4,1.6l-16.6,10.9ZM396.8,272.2c-2.8-.6-6.5-.6-7.6,2.6l-12.2,88.3c16.8-5.2,33.1-12.7,51-14l-31.2-76.8ZM569,352c11.9,4.6,7.9-10.6,5.7-17.2-3.7-11-12.4-18.8-24.2-19.8s-15-1.3-14.3,4.4,9.5,2.9,15,3.9,5,2.2,7.7,2.8c1.8,2.5-11.8,17.4-14.4,19.9-38.8,37.9-98.1,48.8-150.6,48.4-2.7,1.9,1.8,30.7.6,35.6l-49.1,9.9c-2.2.3-1.1-.1-1.4-1.5-1-5.3-3.9-35.6-6-37-24.9.3-49.3-5.3-70.3-18.7s-14.4-10.1-15.3-11.8-.2-1.5.5-2.5c3.8-5.4,19.2-7.2,20.6-9.4s-.8-5.9-3.4-6.5-7.5,1.1-9.4,1.8c-12.2,4-24,16.7-28.3,28.7-1.3,3.6-5.2,17.5.2,18.8,7,.4,5.3-8.2,7.2-13.5s-.4-1.7,2.1-1.4c0,1.7,0,3.4.5,5,13.1,53,50.2,130.3,112.2,135.8s22.6,2.6,17.4-7.4c-73.3,1.6-107.6-76.1-122.6-136.4-1.8-3.1-3.3-2.8-6.4-2.1l5-10,3.2,2.3c13.2,34.2,27.7,71.7,47.4,102.6,23.9,37.6,71.2,40.3,111.6,34.8,8-1.1,16.1-3.1,23.6-5.9.8-11.7-4.8-22.6-6.8-33.8l45-12.1c.9,6,4.6,34.3,9.2,36.3,7.4,3.2,24.5-5.1,30.7-9.9,28.7-22.6,27.8-71.8,34.5-104.5s14.2-50,17-49.9c4.2,4.2,3.7,10.3,5.5,15.5l-2,1.1c-4.1-1.6-5.3-.6-6.6,3.2-11.6,32-11.1,100-29.8,122.2s-9.5,6-7,11c4,8.2,16.3-8.9,18.4-12.7,12.9-23.4,12.1-49.2,16.5-74.5,2.6-15.2,7.5-30.7,10.7-45.8ZM618.8,374.2c-5-5.2-7.4,4.5-7.7,8.3-3.6,40.3-7.8,90.2-39,120-2.6,2.4-15.1,10.6-15.5,11.5-1.1,2.3-.2,5.1,2.2,5.8,5.9,1.7,18.8-10.4,22.8-14.8,25.7-28.1,37.3-81.3,38.5-118.5,0-2.9.6-10.3-1.2-12.2Z"/>
  <path class="st0" d="M374.7,41.1c1.2-.3,2,0,2.9.8,1.1,1,1.5,2.1,1.5,3.6,0,2.3-7.3,17.7-8.6,22.5-7.4,27.2-1,45.5-3.6,70.4s-6.1,20.4-17.4,12.6c-16.9-11.6-3.4-57,3-73,2.4-5.9,17.3-35.6,22.2-36.9Z"/>
  <path class="st0" d="M392,46c1.3,1.7,1.6,37.5,2.1,43.4,1.5,15.8,11.7,30.8,10.9,47-4.7,4.7-9.2-5-11.1-8.8-3.1-6.4-3.5-15.1-9-19.5-2.2,7.3,5.9,25.7,1.5,31s-8.6-5.5-9.4-8.6c-6.4-22.2,0-63.6,12.7-83.2.6-1-.1-1.8,2.2-1.3Z"/>
  <path d="M569,352c-3.2,15.1-8.1,30.6-10.7,45.8-4.4,25.3-3.6,51.1-16.5,74.5-2.1,3.8-14.3,20.9-18.4,12.7s4.2-7.7,7-11c18.7-22.2,18.2-90.3,29.8-122.2,1.4-3.8,2.5-4.8,6.6-3.2l2-1.1c-1.8-5.2-1.3-11.3-5.5-15.5-2.8,0-15.9,44.6-17,49.9-6.7,32.7-5.9,81.9-34.5,104.5-6.2,4.9-23.3,13.1-30.7,9.9-4.6-2-8.4-30.4-9.2-36.3l-45,12.1c2,11.2,7.6,22.1,6.8,33.8-7.6,2.7-15.6,4.8-23.6,5.9-40.4,5.5-87.7,2.8-111.6-34.8-19.7-31-34.1-68.5-47.4-102.6l-3.2-2.3-5,10c3.1-.7,4.7-1,6.4,2.1,15,60.3,49.3,137.9,122.6,136.4,5.2,10.1-11.4,8-17.4,7.4-62-5.5-99.1-82.8-112.2-135.8s-.5-3.3-.5-5c-2.5-.3-1.6,0-2.1,1.4-1.9,5.2-.2,13.8-7.2,13.5-5.4-1.3-1.5-15.2-.2-18.8,4.3-12.1,16-24.7,28.3-28.7s7.7-2.1,9.4-1.8c2.7.6,5.1,3.8,3.4,6.5s-16.8,4-20.6,9.4-1.2,1.1-.5,2.5,12.8,10.3,15.3,11.8c21,13.3,45.5,19,70.3,18.7,2.1,1.4,5,31.8,6,37s-.8,1.7,1.4,1.5l49.1-9.9c1.2-4.9-3.3-33.7-.6-35.6,52.5.4,111.8-10.5,150.6-48.4,2.6-2.5,16.2-17.4,14.4-19.9-2.6-.6-5-2.4-7.7-2.8-5.5-1-14.1,3.2-15-3.9s10.5-4.7,14.3-4.4c11.8,1,20.5,8.8,24.2,19.8s6.1,21.8-5.7,17.2Z"/>
  <path d="M341,337c-17.2-24.9-43-40.6-73-25.5-4,2-7,4.8-11,6.5-3.4-29,2.8-68.4,28.7-85.8s33.2-1.8,41.8,17.8c11.4,26,12.8,58.9,13.5,87Z"/>
  <path d="M523,263c-23.8,3.5-41.7,21.3-53.4,41.1l-10.6,20.9c-11.2-28.7-15.4-60.7-9.7-91.2,3.3-18,7-32.7,29.1-29.7,24.3,3.2,39.5,37.9,44.6,58.9Z"/>
  <path d="M396.8,272.2l31.2,76.8c-17.9,1.3-34.2,8.8-51,14l12.2-88.3c1.1-3.2,4.8-3.2,7.6-2.6Z"/>
  <path d="M223.8,225.3c1.3,1.2.9,3,.6,4.5-1.7,7.3-8.5,19.6-11.4,27.7-19.6,55.1-30.5,121.3-12,178.1,1.5,4.8,9.9,21.6,10,24.1.2,3.6-4.2,5.7-6.8,4.2s-9.8-21.3-11-24.5c-20.1-59-8.1-131.2,13-188.5,2.2-5.9,7.2-20.2,10.3-24.7s5.1-2.8,7.2-.8Z"/>
  <path d="M256,330l16.6-10.9c12-5.3,22.9-5.2,35.4-1.6s20.1,5.9,13.8,12.2c-.9.6-2.2,1.2-3.2,1.1-2.9-.2-12.8-5.6-18.3-6.6-12.2-2.2-22.7.3-32.6,7.9s-7,9.2-12.1,9.8c-4.8-.6-10.8-17.5-12-22-5.2-19.6-3.7-39.2,4-58,2.4-5.8,8.1-21.1,16-16.1l.4,3.5c-16.1,23.9-20.1,54-8,80.6Z"/>
  <path d="M535.8,274.8c-25.9,5.5-44.2,19.6-56.9,42.6-2,3.7-3.6,13-8.5,13.5-9.8.9,1.4-17.9,3.5-21.5,12.1-20.8,31.6-36.4,55.2-41.9-.6-16.9-6.5-31.8-17.1-44.9s-10.3-9.1-10.6-12c3.8-9.4,13.8,2.5,17.6,7,12.5,14.9,21.5,37.9,16.8,57.2Z"/>
  <path d="M618.8,374.2c1.8,1.9,1.3,9.3,1.2,12.2-1.1,37.3-12.8,90.5-38.5,118.5-4,4.4-16.9,16.6-22.8,14.8s-3.4-3.6-2.2-5.8,13-9,15.5-11.5c31.2-29.8,35.4-79.7,39-120,.3-3.8,2.7-13.5,7.7-8.3Z"/>
</svg>