<?xml version="1.0" encoding="UTF-8"?>
<svg id="Layer_1" xmlns="http://www.w3.org/2000/svg" version="1.1" viewBox="0 0 72 72">
  <!-- Generator: Adobe Illustrator 29.8.2, SVG Export Plug-In . SVG Version: 2.1.1 Build 3)  -->
  <defs>
    <style>
      .st0 {
        fill: #010101;
      }
    </style>
  </defs>
  <path class="st0" d="M-86.6,68.2c0,0-.2,0-.3,0,0,0,0,0-.1,0,0,.5-1.8,2.1-2.1,2.4-5.7,4.7-14.5,6.1-22.3,6.1-.4.2.3,3.8,0,4.5l-7.3,1.2c-.1,0-.1,0-.2,0,0,0,0-.1,0-.3-.1-.7-.6-4.5-.9-4.6-3.7,0-7.3-.7-10.4-2.3-.4-.2-2.1-1.3-2.3-1.5-.1,0-.3.1-.4.2,0,0,0,0,0,0h.2c2,4.4,4.1,9.1,7,13,3.5,4.7,10.5,5,16.5,4.4,1.2-.1,2.4-.4,3.5-.7.1-1.5-.7-2.8-1-4.2l6.7-1.5c.1.7.7,4.3,1.4,4.5,1.1.4,3.6-.6,4.5-1.2,4.2-2.8,4.1-9,5.1-13.1.2-.7,2.1-6.2,2.5-6.2,0,0,0,0,0,0,0,0,0-.2,0-.3-.1,0-.2-.2-.3-.3Z"/>
  <path class="st0" d="M-133.9,75.7s0,0,0,0c0,0,0,0,0,0Z"/>
  <path class="st0" d="M-119.3,69.4c-2.5-3.1-6.4-5.1-10.8-3.2-.6.3-1,.6-1.6.8-.5-3.6.4-8.6,4.2-10.7s4.9-.2,6.2,2.2c1.7,3.3,1.9,7.4,2,10.9Z"/>
  <path class="st0" d="M-92.3,60.1c-3.5.4-6.2,2.7-7.9,5.1l-1.6,2.6c-1.7-3.6-2.3-7.6-1.4-11.4.5-2.3,1-4.1,4.3-3.7,3.6.4,5.8,4.7,6.6,7.4Z"/>
  <path class="st0" d="M-111,61.3l4.6,9.6c-2.6.2-5.1,1.1-7.5,1.8l1.8-11c.2-.4.7-.4,1.1-.3h0Z"/>
</svg>